<mxfile host="app.diagrams.net" modified="2023-12-21T16:28:18.559Z" agent="Mozilla/5.0 (Windows NT 10.0; Win64; x64) AppleWebKit/537.36 (KHTML, like Gecko) Chrome/120.0.0.0 Safari/537.36 Edg/120.0.0.0" version="22.1.11" etag="v7cDl5gFYdyr5RSEBSZ6" type="github">
  <diagram name="第 1 页" id="BzOJNRyazTcitDLwYPjq">
    <mxGraphModel>
      <root>
        <mxCell id="0" />
        <mxCell id="1" parent="0" />
      </root>
    </mxGraphModel>
  </diagram>
</mxfile>
